<svg width="89" height="32" viewBox="0 0 89 32" fill="none" xmlns="http://www.w3.org/2000/svg">
<path d="M8 0L10.3605 4.75099L15.6085 5.52786L11.8194 9.24101L12.7023 14.4721L8 12.016L3.29772 14.4721L4.18056 9.24101L0.391548 5.52786L5.63945 4.75099L8 0Z" fill="#E3483D"/>
<path d="M8 17.1237L9.91277 20.9735L10.029 21.2074L10.2873 21.2456L14.5397 21.8751L11.4695 24.8839L11.283 25.0667L11.3264 25.3242L12.0418 29.563L8.23149 27.5728L8 27.4519L7.76851 27.5728L3.95821 29.563L4.67359 25.3242L4.71705 25.0667L4.53052 24.8839L1.46025 21.8751L5.71267 21.2456L5.97102 21.2074L6.08723 20.9735L8 17.1237Z" stroke="#E3483D"/>
<path d="M26 0L28.3605 4.75099L33.6085 5.52786L29.8194 9.24101L30.7023 14.4721L26 12.016L21.2977 14.4721L22.1806 9.24101L18.3915 5.52786L23.6395 4.75099L26 0Z" fill="#E3483D"/>
<path d="M26 17.1237L27.9128 20.9735L28.029 21.2074L28.2873 21.2456L32.5397 21.8751L29.4695 24.8839L29.283 25.0667L29.3264 25.3242L30.0418 29.563L26.2315 27.5728L26 27.4519L25.7685 27.5728L21.9582 29.563L22.6736 25.3242L22.717 25.0667L22.5305 24.8839L19.4603 21.8751L23.7127 21.2456L23.971 21.2074L24.0872 20.9735L26 17.1237Z" stroke="#E3483D"/>
<path d="M44 0L46.3605 4.75099L51.6085 5.52786L47.8194 9.24101L48.7023 14.4721L44 12.016L39.2977 14.4721L40.1806 9.24101L36.3915 5.52786L41.6395 4.75099L44 0Z" fill="#E3483D"/>
<path d="M44 17.1237L45.9128 20.9735L46.029 21.2074L46.2873 21.2456L50.5397 21.8751L47.4695 24.8839L47.283 25.0667L47.3264 25.3242L48.0418 29.563L44.2315 27.5728L44 27.4519L43.7685 27.5728L39.9582 29.563L40.6736 25.3242L40.717 25.0667L40.5305 24.8839L37.4603 21.8751L41.7127 21.2456L41.971 21.2074L42.0872 20.9735L44 17.1237Z" stroke="#E3483D"/>
<path d="M62 0L64.3605 4.75099L69.6085 5.52786L65.8194 9.24101L66.7023 14.4721L62 12.016L57.2977 14.4721L58.1806 9.24101L54.3915 5.52786L59.6395 4.75099L62 0Z" fill="#E3483D"/>
<path d="M62 17.1237L63.9128 20.9735L64.029 21.2074L64.2873 21.2456L68.5397 21.8751L65.4695 24.8839L65.283 25.0667L65.3264 25.3242L66.0418 29.563L62.2315 27.5728L62 27.4519L61.7685 27.5728L57.9582 29.563L58.6736 25.3242L58.717 25.0667L58.5305 24.8839L55.4603 21.8751L59.7127 21.2456L59.971 21.2074L60.0872 20.9735L62 17.1237Z" stroke="#E3483D"/>
<path d="M80 0L82.3605 4.75099L87.6085 5.52786L83.8194 9.24101L84.7023 14.4721L80 12.016L75.2977 14.4721L76.1806 9.24101L72.3915 5.52786L77.6395 4.75099L80 0Z" fill="#E3483D"/>
<path d="M80 17.1237L81.9128 20.9735L82.029 21.2074L82.2873 21.2456L86.5397 21.8751L83.4695 24.8839L83.283 25.0667L83.3264 25.3242L84.0418 29.563L80.2315 27.5728L80 27.4519L79.7685 27.5728L75.9582 29.563L76.6736 25.3242L76.717 25.0667L76.5305 24.8839L73.4603 21.8751L77.7127 21.2456L77.971 21.2074L78.0872 20.9735L80 17.1237Z" stroke="#E3483D"/>
</svg>
